<?xml version="1.0" encoding="UTF-8"?>
<svg width="61px" height="54px" viewBox="0 0 61 54" version="1.1" xmlns="http://www.w3.org/2000/svg" xmlns:xlink="http://www.w3.org/1999/xlink">
    <!-- Generator: Sketch 53.1 (72631) - https://sketchapp.com -->
    <title>分组 copy 5</title>
    <desc>Created with Sketch.</desc>
    <g id="Page-1" stroke="none" stroke-width="1" fill="none" fill-rule="evenodd" opacity="0.545503162">
        <g id="X-Fuction-save-2" transform="translate(-721.000000, -601.000000)" fill="#B1C6D5" fill-rule="nonzero">
            <g id="分组-3" transform="translate(483.000000, 276.000000)">
                <g id="分组-copy-5" transform="translate(238.000000, 325.000000)">
                    <path d="M16,8 C14.0028531,8 12.2453638,8.7489301 10.9971469,9.99714693 C9.7489301,11.2453638 9,13.2524964 9,15 C9,16.7475036 9.7489301,18.7546362 10.9971469,20.0028531 C12.2453638,21.2510699 14.0028531,22 16,22 C17.7475036,22 19.5049929,21.2510699 21.0028531,20.0028531 C22.2510699,18.7546362 23,16.7475036 23,15 C23,13.2524964 22.2510699,11.2453638 21.0028531,9.99714693 C19.4950071,8.7489301 17.7475036,8 16,8 Z" id="路径"></path>
                    <path d="M35.3785844,41.6939509 C35.3785844,33.8947894 41.6900181,27.5617888 49.4852995,27.5617888 C51.8330309,27.5617888 54.0486388,28.1421441 56,29.1501298 L56,4.59193452 C56,2.04651627 53.9673321,0 51.4163339,0 L4.58366606,0 C2.04283122,0 0,2.0363346 0,4.59193452 L0,46.4080655 C0,48.9534837 2.03266788,51 4.58366606,51 L38.8747731,51 C36.6998185,48.5156718 35.3785844,45.2575364 35.3785844,41.6939509 L35.3785844,41.6939509 Z M28,30.3413855 C23.9245009,30.0868437 18.3245009,25.4949092 11.9622505,26.2585346 C9.42141561,26.7676183 5.85408348,30.8504692 3.56733212,33.9049711 L3.56733212,5.59992014 C3.56733212,4.98901976 3.80108893,4.4086644 4.23811252,3.97085247 C4.66497278,3.5432222 5.25444646,3.29886205 5.86424682,3.29886205 L50.1560799,3.29886205 C50.7658802,3.29886205 51.3451906,3.53304053 51.7822142,3.97085247 C52.2090744,4.39848273 52.4529946,4.98901976 52.4529946,5.59992014 L52.4529946,23.7029347 C50.1662432,21.9211419 45.8366606,19.1110002 42.523412,19.1110002 C37.6754991,19.1211819 33.3459165,30.3413855 28,30.3413855 Z" id="形状"></path>
                    <path d="M49.5,54 C43.1486603,54 38,48.6274849 38,42 C38,35.3725151 43.1486603,30 49.5,30 C55.8513397,30 61,35.3725151 61,42 C61,48.6274849 55.8513397,54 49.5,54 Z M54.8076923,41.0769231 L50.3846154,41.0769231 L50.3846154,36.4615385 C50.3746759,35.9533276 49.9870354,35.5488332 49.5,35.5488332 C49.0129646,35.5488332 48.6253241,35.9533276 48.6153846,36.4615385 L48.6153846,41.0769231 L44.1923077,41.0769231 C43.9537597,41.0769231 43.7350908,41.1702679 43.5661193,41.346586 C43.3971478,41.5229041 43.3076923,41.7510804 43.3076923,42 C43.3076923,42.5082109 43.7052723,42.9230769 44.1923077,42.9230769 L48.6153846,42.9230769 L48.6153846,47.5384615 C48.6153846,48.0466724 49.0129646,48.4615385 49.5,48.4615385 C49.9870354,48.4615385 50.3846154,48.0466724 50.3846154,47.5384615 L50.3846154,42.9230769 L54.8076923,42.9230769 C55.0462403,42.9230769 55.2649092,42.8297321 55.4338807,42.653414 C55.6028522,42.4770959 55.6923077,42.2489196 55.6923077,42 C55.6923077,41.7510804 55.6028522,41.5229041 55.4338807,41.346586 C55.2649092,41.1806396 55.0462403,41.0769231 54.8076923,41.0769231 Z" id="形状"></path>
                </g>
            </g>
        </g>
    </g>
</svg>