<?xml version="1.0" encoding="UTF-8"?>
<svg width="80px" height="60px" viewBox="0 0 80 60" version="1.1" xmlns="http://www.w3.org/2000/svg" xmlns:xlink="http://www.w3.org/1999/xlink">
    <!-- Generator: Sketch 53.1 (72631) - https://sketchapp.com -->
    <title>合并形状 copy 2</title>
    <desc>Created with Sketch.</desc>
    <g id="Page-1" stroke="none" stroke-width="1" fill="none" fill-rule="evenodd">
        <g id="X-Fuction-use-1" transform="translate(-605.000000, -472.000000)" fill="#FFFFFF" fill-rule="nonzero" stroke="#B1C6D5">
            <path d="M608.044474,482.5 L609.5,482.5 C612.181854,482.5 614.383156,484.61586 614.495437,487.286147 C614.498479,487.357112 614.5,487.428406 614.5,487.5 C614.499641,487.572486 614.499641,487.572486 614.497952,487.644362 C614.421249,490.344732 612.207584,492.5 609.5,492.5 L608.044474,492.5 C606.705356,492.5 606.00608,492.967262 605.691103,493.768918 C605.539797,494.15401 605.5,494.506004 605.5,495.008108 C605.5,510.504285 605.5,510.504285 605.5,526.000462 C605.5,529.038028 607.962434,531.500462 611,531.500462 L679.000198,531.500462 C682.037764,531.500462 684.500198,529.038028 684.500198,526.000462 L684.500198,495.008108 C684.500198,493.277099 683.735232,492.5 682.039058,492.5 L680.5,492.5 C678.099618,492.5 676.050978,490.796271 675.594166,488.470212 C675.531365,488.156251 675.5,487.831885 675.5,487.5 C675.5,487.429258 675.501484,487.358501 675.504437,487.287634 C675.616241,484.61647 677.81775,482.5 680.5,482.5 L682.039058,482.5 C683.738005,482.5 684.500113,481.744716 684.5,480.065523 L684.500198,477.999411 C684.500198,474.961845 682.037764,472.499411 679.000199,472.499411 L611,472.499558 C607.962434,472.499558 605.5,474.961992 605.5,477.999558 L605.5,480.065571 C605.5,481.741512 606.286932,482.5 608.044474,482.5 Z" id="合并形状-copy-2"></path>
        </g>
    </g>
</svg>