<?xml version="1.0" encoding="UTF-8"?>
<svg width="28px" height="28px" viewBox="0 0 28 28" version="1.1" xmlns="http://www.w3.org/2000/svg" xmlns:xlink="http://www.w3.org/1999/xlink">
    <!-- Generator: Sketch 53.1 (72631) - https://sketchapp.com -->
    <title>形状</title>
    <desc>Created with Sketch.</desc>
    <g id="Page-1" stroke="none" stroke-width="1" fill="none" fill-rule="evenodd">
        <g id="X-Fuction-Guidline" transform="translate(-964.000000, -801.000000)" fill="#50BED7" fill-rule="nonzero">
            <g id="tongbutubiao" transform="translate(964.000000, 801.000000)">
                <path d="M4.28653878,15.1666667 C3.57763597,10.9260693 6.01208771,6.63595234 10.3536205,5.01831 C13.571178,3.81618842 17.0408266,4.3926481 19.4984667,6.10869489 L17.409191,9.35318515 L26.7826087,9.31731514 L23.4298959,0 L21.7136224,2.66326908 C18.0949054,0.415520766 13.1610744,-0.31743374 8.83809231,1.29576453 C2.8505137,3.53018062 -0.595615229,9.31731514 0.0851302238,15.1622226 L4.28653878,15.1622226 L4.28653878,15.1666667 Z M23.7943683,12.8333333 C24.4905359,16.997924 22.1001435,21.2111467 17.8366046,22.7997951 C14.9286408,23.8837297 11.7272456,23.4756565 9.26365791,22.0141998 C9.73080592,21.2856536 11.1185868,19.1352422 11.1185868,19.1352422 L1.2173913,18.5778436 L5.40773497,28 L7.16637155,25.2747323 C10.720405,27.4821929 15.0799109,28.0395915 19.3252322,26.4553075 C25.200692,24.2568875 28.5849126,18.5778436 27.9163964,12.8376978 L23.7943683,12.8333333 Z" id="形状"></path>
            </g>
        </g>
    </g>
</svg>