<?xml version="1.0" standalone="no"?><!DOCTYPE svg PUBLIC "-//W3C//DTD SVG 1.1//EN" "http://www.w3.org/Graphics/SVG/1.1/DTD/svg11.dtd"><svg t="1597647514302" class="icon" viewBox="0 0 1024 1024" version="1.1" xmlns="http://www.w3.org/2000/svg" p-id="2661" xmlns:xlink="http://www.w3.org/1999/xlink" width="200" height="200"><defs><style type="text/css"></style></defs><path d="M707.008 891.008H315.008q-44.032 0-75.008-30.976t-30.976-75.008l32-292.992q0-14.016-3.008-22.976-20.992 19.008-54.016 19.008-46.016 0-83.008-33.984l-4.032-3.008q-32-30.016-33.024-73.472t30.016-74.496L207.936 190.08q27.008-25.984 59.52-45.504t56.512-19.52q25.024 0 54.976 23.488t51.008 54.528q3.008 4.032 9.024 10.496t27.008 16 45.504 9.472 44.992-9.984 26.496-16 9.024-9.984q20.992-30.976 52.032-54.528t57.984-23.488q25.024 0 59.008 20.032t59.008 46.016l108.992 110.976q30.976 32 30.528 75.52t-32.512 74.496q-36.992 36.032-84.992 36.032-32 0-54.016-19.008-1.984-1.024-3.008-1.984-4.032 8-4.032 25.024l32 292.992q0 44.032-30.976 75.008t-75.008 30.976zM241.024 417.024q20.992 0 35.008 17.984t14.016 57.024l-32 292.992q0 24 16.512 40.512t40.512 16.512h392q24 0 40.512-16.512t16.512-40.512l-32-292.992q0-38.016 14.976-56.512t36.032-18.496q19.008 0 36.992 14.976 8 6.976 22.016 6.976 28.032 0 51.008-22.016 17.024-17.024 17.472-40.512t-16.512-40.512l-108.992-110.976q-20.992-22.016-46.528-36.48t-36.48-14.528q-9.984 0-30.976 16t-38.016 41.024q-1.984 3.008-5.504 6.976t-14.528 13.504-24 17.024-33.984 13.504-44.032 6.016-44.032-6.016-33.472-13.504-24-17.024-14.528-14.016-4.992-6.528q-17.024-24-37.504-40.512t-28.48-16.512q-9.984 0-35.008 14.528t-46.016 35.52L129.024 337.92q-17.024 16-16.512 38.528t17.472 38.528l4.032 3.008q22.976 20.992 49.984 20.992 14.016 0 20.992-6.016 17.984-16 36.032-16z" p-id="2662" fill="#cdcdcd"></path></svg>