<?xml version="1.0" standalone="no"?><!DOCTYPE svg PUBLIC "-//W3C//DTD SVG 1.1//EN" "http://www.w3.org/Graphics/SVG/1.1/DTD/svg11.dtd"><svg t="1597196524843" class="icon" viewBox="0 0 1024 1024" version="1.1" xmlns="http://www.w3.org/2000/svg" p-id="6198" xmlns:xlink="http://www.w3.org/1999/xlink" width="200" height="200"><defs><style type="text/css"></style></defs><path d="M834.752 140.504L668 307.504l-0.752-161.76-58.248 58.256-0.248 210.248 209.752 0.256v-0.256l58.496-58.248-163.504-0.752 168-168-46.744-46.744z m-644.752 0.24l-46.752 46.76 168 168-163.248 0.744 58.248 58.256L416 414.24l-0.248-210-58.256-58.248-0.496 161.752L190 140.752z m15.504 467.504l-58.504 58.248 163.248 0.752-167.744 168 46.496 46.752L356 715l0.752 161.752 58.248-58.248v-210l-209.504-0.256z m613.496 1l-209.752 0.248 0.248 210 58.256 58.256 0.752-161.504 166.744 166.752 46.752-46.752-168-168 163.504-0.496-58.504-58.504z" p-id="6199" fill="#cdcdcd"></path></svg>