<?xml version="1.0" encoding="UTF-8"?>
<svg width="177px" height="132px" viewBox="0 0 177 132" version="1.1" xmlns="http://www.w3.org/2000/svg" xmlns:xlink="http://www.w3.org/1999/xlink">
    <!-- Generator: Sketch 53.1 (72631) - https://sketchapp.com -->
    <title>分组 2</title>
    <desc>Created with Sketch.</desc>
    <g id="Page-1" stroke="none" stroke-width="1" fill="none" fill-rule="evenodd">
        <g id="X-Fuction-Guidline" transform="translate(-388.000000, -437.000000)" fill-rule="nonzero">
            <g id="分组-5-copy" transform="translate(349.000000, 278.000000)">
                <g id="分组-4" transform="translate(0.000000, 72.000000)">
                    <g id="分组-3" transform="translate(27.000000, 0.000000)">
                        <g id="分组-2" transform="translate(12.000000, 87.000000)">
                            <rect id="Rectangle-Copy-55" stroke="#B1C6D5" fill="#FFFFFF" x="0.5" y="0.5" width="175.99435" height="131" rx="6"></rect>
                            <g id="分组-copy-4" opacity="0.545503162" transform="translate(45.000000, 26.000000)" fill="#B1C6D5">
                                <path d="M24.5,11 C21.5042796,11 18.8680456,12.1233951 16.9957204,13.9957204 C15.1233951,15.8680456 14,18.8787447 14,21.5 C14,24.1212553 15.1233951,27.1319544 16.9957204,29.0042796 C18.8680456,30.8766049 21.5042796,32 24.5,32 C27.1212553,32 29.7574893,30.8766049 32.0042796,29.0042796 C33.8766049,27.1319544 35,24.1212553 35,21.5 C35,18.8787447 33.8766049,15.8680456 32.0042796,13.9957204 C29.7425107,12.1233951 27.1212553,11 24.5,11 Z" id="路径"></path>
                                <path d="M53.0678766,62.1321621 C53.0678766,50.5098822 62.5350272,41.0724696 74.2279492,41.0724696 C77.7495463,41.0724696 81.0729583,41.9373128 84,43.4394091 L84,6.84288281 C84,3.04971052 80.9509982,0 77.1245009,0 L6.87549909,0 C3.06424682,0 0,3.03453783 0,6.84288281 L0,69.1571172 C0,72.9502895 3.04900181,76 6.87549909,76 L58.3121597,76 C55.0497278,72.2978638 53.0678766,67.4426033 53.0678766,62.1321621 L53.0678766,62.1321621 Z M42,45.2146137 C35.8867514,44.8352965 27.4867514,37.9924137 17.9433757,39.1303653 C14.1321234,39.8889998 8.78112523,45.9732482 5.35099819,50.5250549 L5.35099819,8.34497904 C5.35099819,7.43461769 5.70163339,6.56977441 6.35716878,5.91734877 C6.99745917,5.28009583 7.88166969,4.91595129 8.79637024,4.91595129 L75.2341198,4.91595129 C76.1488203,4.91595129 77.0177858,5.26492314 77.6733212,5.91734877 C78.3136116,6.55460172 78.6794918,7.43461769 78.6794918,8.34497904 L78.6794918,35.3220204 C75.2493648,32.6667998 68.7549909,28.4791376 63.785118,28.4791376 C56.5132486,28.4943102 50.0188748,45.2146137 42,45.2146137 Z" id="形状"></path>
                                <path d="M73.5,80 C63.8349179,80 56,72.1650821 56,62.5 C56,52.8349179 63.8349179,45 73.5,45 C83.1650821,45 91,52.8349179 91,62.5 C91,72.1650821 83.1650821,80 73.5,80 Z M81.5769231,61.1538462 L74.8461538,61.1538462 L74.8461538,54.4230769 C74.8310285,53.681936 74.2411409,53.0920484 73.5,53.0920484 C72.7588591,53.0920484 72.1689715,53.681936 72.1538462,54.4230769 L72.1538462,61.1538462 L65.4230769,61.1538462 C65.0600691,61.1538462 64.727312,61.2899741 64.4701815,61.5471046 C64.213051,61.8042351 64.0769231,62.1369922 64.0769231,62.5 C64.0769231,63.2411409 64.681936,63.8461538 65.4230769,63.8461538 L72.1538462,63.8461538 L72.1538462,70.5769231 C72.1538462,71.318064 72.7588591,71.9230769 73.5,71.9230769 C74.2411409,71.9230769 74.8461538,71.318064 74.8461538,70.5769231 L74.8461538,63.8461538 L81.5769231,63.8461538 C81.9399309,63.8461538 82.272688,63.7100259 82.5298185,63.4528954 C82.786949,63.1957649 82.9230769,62.8630078 82.9230769,62.5 C82.9230769,62.1369922 82.786949,61.8042351 82.5298185,61.5471046 C82.272688,61.3050994 81.9399309,61.1538462 81.5769231,61.1538462 Z" id="形状"></path>
                            </g>
                        </g>
                    </g>
                </g>
            </g>
        </g>
    </g>
</svg>