<svg id="blister" xmlns="http://www.w3.org/2000/svg" viewBox="0 0 185.65 207.65" width="60" height="60"><path d="M108.37,65.14h13.75V56.86A4.79,4.79,0,0,1,125,52.47a7.84,7.84,0,0,1,7.7.83,3.43,3.43,0,0,1,1.57,2.87v9H150a5,5,0,0,1,2.9.89c1.32,1,2.69,2.72.83,5.37a4.29,4.29,0,0,1-3.52,1.73H109.29a5.25,5.25,0,0,1-4.76-2.75,3.21,3.21,0,0,1,.41-3.79A4.55,4.55,0,0,1,108.37,65.14Z" transform="translate(-17.87 -13.58)" fill="none" stroke="#fff" stroke-miterlimit="10" stroke-width="3"/><polygon points="70.02 68.42 147.35 68.42 147.35 106.31 161.33 121.35 161.33 182.94 85.55 182.94 85.55 122.49 70.02 105.17 70.02 68.42" fill="none" stroke="#fff" stroke-miterlimit="10" stroke-width="5"/><polyline points="70.02 105.99 70.02 182.94 85.55 182.94" fill="none" stroke="#fff" stroke-miterlimit="10" stroke-width="5"/><line x1="72.58" y1="103.9" x2="147.35" y2="103.9" fill="none" stroke="#fff" stroke-miterlimit="10" stroke-width="5"/><circle cx="6" cy="6" r="6" fill="#fff"/><line x1="20.12" y1="3.46" x2="185.65" y2="3.46" fill="none" stroke="#fff" stroke-miterlimit="10" stroke-width="4" stroke-dasharray="4 4 4 4 4 4"/><line x1="6" y1="23.1" x2="6" y2="146.1" fill="none" stroke="#fff" stroke-miterlimit="10" stroke-width="4" stroke-dasharray="4 4 4 4 4 4"/><line x1="15.44" y1="14.07" x2="40.63" y2="32.13" fill="none" stroke="#fff" stroke-miterlimit="10" stroke-width="4" stroke-dasharray="4 4 4 4 4 4"/><path d="M183.53,218.73,74,217.22a11.23,11.23,0,0,1-10.86-11.47L64.19,49.69a11,11,0,0,1,11-11.18L184.76,40A11.23,11.23,0,0,1,195.62,51.5l-1.08,156.06A11,11,0,0,1,183.53,218.73Z" transform="translate(-17.87 -13.58)" fill="none" stroke="#fff" stroke-miterlimit="10" stroke-width="5"/></svg>