<svg id="Handover" xmlns="http://www.w3.org/2000/svg" viewBox="0 0 223.93 163.69" width="60" height="60"><rect x="34.67" y="169.22" width="18.67" height="39.11" transform="translate(-67.57 312.6) rotate(-139.38)" fill="none" stroke="#fff" stroke-miterlimit="10" stroke-width="3"/><rect x="35.72" y="165.4" width="53.8" height="9.8" rx="4.9" transform="translate(-22.79 292.21) rotate(-139.38)" fill="#fff" stroke="#fff" stroke-miterlimit="10" stroke-width="3"/><polyline points="51.09 135.17 86.18 132.48 83.56 98.34" fill="none" stroke="#fff" stroke-miterlimit="10" stroke-width="4"/><polyline points="25.41 113.15 22.72 78.06 56.86 75.44" fill="none" stroke="#fff" stroke-miterlimit="10" stroke-width="4"/><circle cx="42.88" cy="117.58" r="6.7" fill="#231f20" stroke="#fff" stroke-miterlimit="10" stroke-width="3"/><rect x="214.01" y="62.25" width="18.67" height="39.11" transform="translate(160.81 268.07) rotate(-100.32)" fill="none" stroke="#fff" stroke-miterlimit="10" stroke-width="3"/><rect x="171.1" y="83.65" width="53.8" height="9.8" rx="4.9" transform="translate(124.28 251.09) rotate(-100.32)" fill="#fff" stroke="#fff" stroke-miterlimit="10" stroke-width="3"/><polyline points="181.83 56.09 161.8 85.03 133.64 65.55" fill="none" stroke="#fff" stroke-miterlimit="10" stroke-width="4"/><polyline points="175.76 22.81 146.82 2.78 127.34 30.94" fill="none" stroke="#fff" stroke-miterlimit="10" stroke-width="4"/><circle cx="170.78" cy="40.13" r="6.7" fill="#231f20" stroke="#fff" stroke-miterlimit="10" stroke-width="3"/><polygon points="93.61 35.68 65.56 46.77 94.39 58.17 124.52 46.26 93.61 35.68" fill="none" stroke="#fff" stroke-miterlimit="10" stroke-width="3"/><line x1="93.61" y1="35.68" x2="94.39" y2="58.17" fill="none" stroke="#fff" stroke-miterlimit="10" stroke-dasharray="2 2 2 2 2 2"/><polygon points="93.61 67.42 65.56 78.5 94.39 89.9 124.52 77.99 93.61 67.42" fill="none" stroke="#fff" stroke-miterlimit="10" stroke-width="3"/><line x1="94.39" y1="58.64" x2="94.39" y2="90.43" fill="#231f20" stroke="#fff" stroke-miterlimit="10" stroke-width="3"/><line x1="127.73" y1="45.94" x2="127.73" y2="78.03" fill="#231f20" stroke="#fff" stroke-miterlimit="10" stroke-width="3"/><line x1="62.92" y1="46.93" x2="62.92" y2="78.66" fill="#231f20" stroke="#fff" stroke-miterlimit="10" stroke-width="3"/><line x1="100.95" y1="100.77" x2="139.4" y2="86.1" fill="none" stroke="#fff" stroke-miterlimit="10" stroke-width="3" stroke-dasharray="2 2 2 2 2 2"/><line x1="91.19" y1="113.89" x2="129.64" y2="99.21" fill="none" stroke="#fff" stroke-miterlimit="10" stroke-width="3" stroke-dasharray="2 2 2 2 2 2"/><line x1="51.21" y1="30.72" x2="89.67" y2="16.05" fill="none" stroke="#fff" stroke-miterlimit="10" stroke-width="3" stroke-dasharray="2 2 2 2 2 2"/><line x1="41.46" y1="43.84" x2="79.91" y2="29.16" fill="none" stroke="#fff" stroke-miterlimit="10" stroke-width="3" stroke-dasharray="2 2 2 2 2 2"/></svg>