<svg id="object_estiatn" data-name="object estiatn" xmlns="http://www.w3.org/2000/svg" viewBox="0 0 185.65 152.47" width="60" height="60"><polyline points="80.87 86.21 91.17 86.17 91.17 83.56 83.86 83.56 83.86 77.81 81.12 77.81 81.12 86.43" fill="none" stroke="#231f20" stroke-miterlimit="10" stroke-width="0.5"/><circle cx="6" cy="6" r="6" fill="#fff"/><line x1="20.12" y1="3.46" x2="185.65" y2="3.46" fill="none" stroke="#fff" stroke-miterlimit="10" stroke-width="4" stroke-dasharray="4 4 4 4 4 4"/><line x1="6" y1="23.1" x2="6" y2="146.1" fill="none" stroke="#fff" stroke-miterlimit="10" stroke-width="4" stroke-dasharray="4 4 4 4 4 4"/><line x1="15.44" y1="14.07" x2="40.63" y2="32.13" fill="none" stroke="#fff" stroke-miterlimit="10" stroke-width="4" stroke-dasharray="4 4 4 4 4 4"/><ellipse cx="113.35" cy="67" rx="22.94" ry="49.16" transform="translate(33 167.88) rotate(-89.4)" fill="none" stroke="#fff" stroke-miterlimit="10" stroke-width="4"/><ellipse cx="113.35" cy="136.41" rx="22.94" ry="49.16" transform="translate(-36.4 236.55) rotate(-89.4)" fill="none" stroke="#fff" stroke-miterlimit="10" stroke-width="4"/><line x1="52.05" y1="55.24" x2="52.05" y2="124.65" fill="#fff" stroke="#fff" stroke-miterlimit="10" stroke-width="4"/><line x1="150.4" y1="55.24" x2="150.4" y2="124.65" fill="#fff" stroke="#fff" stroke-miterlimit="10" stroke-width="4"/><ellipse cx="150.4" cy="57.1" rx="1.21" ry="1.58" fill="#fff" stroke="#fff" stroke-miterlimit="10" stroke-width="0.75"/><ellipse cx="101.2" cy="32" rx="1.21" ry="1.58" fill="#fff" stroke="#fff" stroke-miterlimit="10" stroke-width="0.75"/><ellipse cx="101.07" cy="78.07" rx="1.21" ry="1.58" fill="#fff" stroke="#fff" stroke-miterlimit="10" stroke-width="0.75"/><ellipse cx="52.05" cy="124.65" rx="1.21" ry="1.58" fill="#fff" stroke="#fff" stroke-miterlimit="10" stroke-width="0.75"/><ellipse cx="150.4" cy="124.65" rx="1.21" ry="1.58" fill="#fff" stroke="#fff" stroke-miterlimit="10" stroke-width="0.75"/><ellipse cx="101.2" cy="101.38" rx="1.21" ry="1.58" fill="#fff" stroke="#fff" stroke-miterlimit="10" stroke-width="0.75"/><ellipse cx="100.68" cy="147.55" rx="1.21" ry="1.58" fill="#fff" stroke="#fff" stroke-miterlimit="10" stroke-width="0.75"/><circle cx="100.29" cy="33.06" r="4.5" fill="#43494e" stroke="#fff" stroke-miterlimit="10" stroke-width="4"/><circle cx="53.26" cy="54.57" r="4.5" fill="#43494e" stroke="#fff" stroke-miterlimit="10" stroke-width="4"/><circle cx="149.84" cy="54.57" r="4.5" fill="#43494e" stroke="#fff" stroke-miterlimit="10" stroke-width="4"/><circle cx="53.71" cy="120.78" r="4.5" fill="#43494e" stroke="#fff" stroke-miterlimit="10" stroke-width="4"/><circle cx="150.4" cy="120.78" r="4.5" fill="#43494e" stroke="#fff" stroke-miterlimit="10" stroke-width="4"/><circle cx="100.29" cy="145.97" r="4.5" fill="#43494e" stroke="#fff" stroke-miterlimit="10" stroke-width="4"/></svg>