<?xml version="1.0" standalone="no"?><!DOCTYPE svg PUBLIC "-//W3C//DTD SVG 1.1//EN" "http://www.w3.org/Graphics/SVG/1.1/DTD/svg11.dtd"><svg t="1601364551466" class="icon" viewBox="0 0 1024 1024" version="1.1" xmlns="http://www.w3.org/2000/svg" p-id="3260" xmlns:xlink="http://www.w3.org/1999/xlink" width="128" height="128"><defs><style type="text/css"></style></defs><path d="M317.295775 219.943662h97.352112c18.028169 0 32.450704 14.422535 32.450705 32.450704v519.211268c0 18.028169-14.422535 32.450704-32.450705 32.450704H317.295775c-18.028169 0-32.450704-14.422535-32.450705-32.450704V252.394366c0-18.028169 14.422535-32.450704 32.450705-32.450704zM609.352113 219.943662h97.352112c18.028169 0 32.450704 14.422535 32.450705 32.450704v519.211268c0 18.028169-14.422535 32.450704-32.450705 32.450704h-97.352112c-18.028169 0-32.450704-14.422535-32.450705-32.450704V252.394366c0-18.028169 14.422535-32.450704 32.450705-32.450704z" p-id="3261" fill="#e6e6e6"></path></svg>