<svg id="Place" xmlns="http://www.w3.org/2000/svg" viewBox="0 0 89.26 120.16" width="60" height="60"><rect x="33.22" y="1.5" width="22.87" height="22.87" fill="none" stroke="#fff" stroke-miterlimit="10" stroke-width="3"/><rect x="17.75" y="26.05" width="53.8" height="9.8" rx="4.9" fill="#fff" stroke="#fff" stroke-miterlimit="10" stroke-width="3"/><polyline points="27.71 27.96 2.83 52.84 27.04 77.05" fill="none" stroke="#fff" stroke-miterlimit="10" stroke-width="4"/><polyline points="61.54 27.96 86.43 52.84 62.22 77.05" fill="none" stroke="#fff" stroke-miterlimit="10" stroke-width="4"/><circle cx="44.65" cy="34.03" r="5.71" fill="#231f20" stroke="#fff" stroke-miterlimit="10" stroke-width="3"/><line x1="0.52" y1="97.64" x2="88.78" y2="97.64" fill="none" stroke="#fff" stroke-miterlimit="10" stroke-width="4"/><polygon points="29.22 97.81 68.61 97.81 58.69 118.16 29.22 118.16 20.69 97.81 29.22 97.81" fill="none" stroke="#fff" stroke-miterlimit="10" stroke-width="4"/><polyline points="36.93 73.4 44.85 80.7 52.32 73.4" fill="none" stroke="#fff" stroke-miterlimit="10" stroke-width="3"/><polyline points="36.93 83.03 44.85 90.33 52.32 83.03" fill="none" stroke="#fff" stroke-miterlimit="10" stroke-width="3"/><line x1="36.93" y1="42.33" x2="36.93" y2="63.99" fill="none" stroke="#fff" stroke-miterlimit="10" stroke-width="2" stroke-dasharray="2 2 2 2 2 2"/><line x1="50.36" y1="47.29" x2="50.36" y2="68.94" fill="none" stroke="#fff" stroke-miterlimit="10" stroke-width="2" stroke-dasharray="2 2 2 2 2 2"/></svg>