<?xml version="1.0" standalone="no"?><!DOCTYPE svg PUBLIC "-//W3C//DTD SVG 1.1//EN" "http://www.w3.org/Graphics/SVG/1.1/DTD/svg11.dtd"><svg t="1594866736237" class="icon" viewBox="0 0 1024 1024" version="1.1" xmlns="http://www.w3.org/2000/svg" p-id="2010" width="128" height="128" xmlns:xlink="http://www.w3.org/1999/xlink"><defs><style type="text/css"></style></defs><path d="M889.663444 166.304216A510.655681 510.655681 0 0 0 511.96768 0.00032c-282.783823 0-511.99968 229.215857-511.99968 511.99968h95.99994c0-229.759856 186.239884-415.99974 415.99974-415.99974 123.007923 0 233.535854 53.407967 309.695806 138.303914L671.96758 384.00008h351.99978V32.0003l-134.335916 134.303916zM927.99942 512c0 229.759856-186.239884 415.99974-415.99974 415.99974a414.879741 414.879741 0 0 1-309.695806-138.303914L351.99978 639.99992H0v351.99978l134.303916-134.303916A510.655681 510.655681 0 0 0 511.99968 1023.99968c282.783823 0 511.99968-229.215857 511.99968-511.99968h-95.99994z" p-id="2011" fill="#8a8a8a"></path></svg>