<svg id="Layer_1" enable-background="new 0 0 512 512" height="512" viewBox="0 0 512 512" width="512" xmlns="http://www.w3.org/2000/svg"><g><path d="m499.258 285.134-46.487-38.009v-40.397c30.123-29.156 10.457-80.472-31.502-81.896l-70.714-70.714c.009-.393.03-.783.03-1.178 0-29.191-23.749-52.94-52.94-52.94s-52.94 23.749-52.94 52.94c0 .127.009.252.01.379l-110.77 112.22c-.018 0-.037-.001-.055-.001-26.296 0-47.689 21.394-47.689 47.69 0 13.27 5.453 25.287 14.23 33.94v161.542h-18.75c-20.986 0-38.06 17.074-38.06 38.06v5.747h-.863c-22.833 0-41.408 18.576-41.408 41.408 0 9.966 8.108 18.075 18.075 18.075h239.507c4.142 0 7.5-3.358 7.5-7.5v-10.575c0-22.833-18.576-41.408-41.408-41.408h-.862v-5.747c0-20.986-17.074-38.06-38.06-38.06h-18.75v-92.5c0-4.142-3.358-7.5-7.5-7.5s-7.5 3.358-7.5 7.5v92.5h-36.92v-151.513c5.681 2.394 11.918 3.72 18.459 3.72 6.542 0 12.779-1.326 18.46-3.72v29.013c0 4.142 3.358 7.5 7.5 7.5s7.5-3.358 7.5-7.5v-39.042c8.777-8.654 14.229-20.67 14.229-33.94 0-.229-.014-.455-.017-.683l106.209-107.601c6.146 1.165 12.453 1.29 19.101.115l65.129 65.129c-.69 14.515 5.174 27.872 15.159 37.174v39.737l-14.183 11.46c-3.222 2.604-3.723 7.326-1.12 10.547 1.482 1.834 3.65 2.787 5.838 2.787 1.655 0 3.322-.545 4.709-1.667l16.969-13.712c1.762-1.424 2.786-3.568 2.786-5.833v-33.841c11.65 4.605 24.415 4.359 35.61-.262v34.103c0 2.25 1.011 4.382 2.752 5.806l49.201 40.228c2.845 2.359 5.927 4.234 5.927 8.796v59.27c0 2.449-1.083 4.755-2.969 6.326-38.289 31.877-36.764 31.534-40.851 31.534-7.671 0-11.197-9.636-5.283-14.564l29.94-24.91c1.712-1.425 2.703-3.538 2.703-5.766v-44.52c0-2.228-.991-4.341-2.704-5.766l-21.36-17.77c-1.347-1.121-3.044-1.734-4.796-1.734h-61.41c-1.753 0-3.452.614-4.799 1.737l-21.34 17.77c-1.711 1.425-2.701 3.536-2.701 5.763v44.52c0 2.227.99 4.339 2.701 5.764l29.921 24.911c1.887 1.57 2.969 3.883 2.969 6.346 0 6.916-8.138 10.787-13.502 6.315l-35.588-29.628c-1.888-1.572-2.97-3.878-2.97-6.328v-59.27c0-2.003.731-3.936 2.092-5.481.693-.797.617-.644 13.368-10.947 3.222-2.604 3.723-7.326 1.12-10.547-2.603-3.222-7.325-3.723-10.547-1.12-13.349 10.787-13.563 10.818-15.231 12.739-3.741 4.248-5.802 9.702-5.802 15.357v59.27c0 6.915 3.051 13.422 8.371 17.854l35.587 29.628c9.814 8.178 24.45 6.909 32.726-2.983 8.146-9.787 6.943-24.46-2.995-32.732l-27.219-22.662v-37.49l16.554-13.785h55.984l16.572 13.787v37.487l-27.242 22.666c-16.655 13.883-6.767 41.091 14.882 41.091 5.421 0 10.699-1.91 14.858-5.376l35.592-29.631c5.319-4.431 8.37-10.938 8.37-17.853v-59.27c0-11.702-7.615-17.247-11.393-20.379zm-313.157 138.576c12.715 0 23.06 10.345 23.06 23.06v5.747h-95.813c-4.142 0-7.5 3.358-7.5 7.5s3.358 7.5 7.5 7.5h111.675c14.562 0 26.408 11.847 26.408 26.408v3.075h-232.007c-1.695 0-3.075-1.379-3.075-3.075 0-14.562 11.847-26.408 26.408-26.408h40.591c4.142 0 7.5-3.358 7.5-7.5s-3.358-7.5-7.5-7.5h-24.727v-5.747c0-12.715 10.345-23.06 23.06-23.06zm-52.211-177.793c-18.025 0-32.689-14.665-32.689-32.689 0-18.025 14.665-32.69 32.689-32.69 18.025 0 32.69 14.665 32.69 32.69 0 18.024-14.664 32.689-32.69 32.689zm44.02-51.025c-4.92-11.769-14.43-21.152-26.278-25.919l96.375-97.636c4.454 11.98 13.127 21.923 24.205 28.018zm119.735-104.011c-20.92 0-37.94-17.02-37.94-37.94s17.02-37.941 37.94-37.941 37.94 17.02 37.94 37.94-17.02 37.941-37.94 37.941zm78.447 62.183-53.464-53.464c11.132-5.984 19.88-15.837 24.452-27.746l55.93 55.93c-11.998 4.478-21.714 13.655-26.918 25.28zm43.542 52.105c-18.025 0-32.69-14.665-32.69-32.69s14.665-32.689 32.69-32.689 32.689 14.665 32.689 32.689c0 18.026-14.664 32.69-32.689 32.69z"/><path d="m133.89 202.688c-5.812 0-10.539 4.728-10.539 10.539s4.728 10.539 10.539 10.539 10.539-4.728 10.539-10.539-4.727-10.539-10.539-10.539z"/><path d="m297.645 42.402c-5.812 0-10.539 4.728-10.539 10.539s4.728 10.539 10.539 10.539 10.539-4.728 10.539-10.539c0-5.812-4.728-10.539-10.539-10.539z"/><path d="m419.634 161.941c-5.812 0-10.539 4.728-10.539 10.539s4.728 10.539 10.539 10.539 10.539-4.728 10.539-10.539-4.728-10.539-10.539-10.539z"/></g></svg>