<?xml version="1.0" encoding="iso-8859-1"?>
<!-- Generator: Adobe Illustrator 22.1.0, SVG Export Plug-In . SVG Version: 6.00 Build 0)  -->
<svg xmlns="http://www.w3.org/2000/svg" xmlns:xlink="http://www.w3.org/1999/xlink" version="1.1" id="Layer_1_1_" x="0px" y="0px" viewBox="0 0 64 64" style="enable-background:new 0 0 64 64;" xml:space="preserve" width="512" height="512">
<g>
	<path d="M57.351,25H55V13.736c1.811-1.267,3-3.364,3-5.736c0-3.86-3.14-7-7-7c-3.255,0-5.989,2.236-6.77,5.25l-27.781,5.201   C15.685,11.164,14.862,11,14,11c-3.86,0-7,3.14-7,7c0,1.902,0.765,3.627,2,4.89v18.211C6.721,41.566,5,43.586,5,46v9H4   c-1.654,0-3,1.346-3,3v5h26v-5c0-1.654-1.346-3-3-3h-1v-9c0-2.414-1.721-4.434-4-4.899V22.89c0.122-0.124,0.239-0.253,0.351-0.386   l27.08-9.212c0.182,0.158,0.371,0.307,0.569,0.445V25h-2.351L39,29.52v7.961L44.649,42h2.828L45,35.808v-3.189l2-1V33h8v-1.382l2,1   v3.189L54.523,42h2.828L63,37.48V29.52L57.351,25z M51,3c2.757,0,5,2.243,5,5s-2.243,5-5,5s-5-2.243-5-5S48.243,3,51,3z M14,13   c2.757,0,5,2.243,5,5s-2.243,5-5,5s-5-2.243-5-5S11.243,13,14,13z M11,24.315C11.911,24.75,12.925,25,14,25s2.089-0.25,3-0.685V41   h-6V24.315z M25,58v3H3v-3c0-0.551,0.449-1,1-1h20C24.551,57,25,57.449,25,58z M21,46v1H9v2h12v6H7v-2h12v-2H7v-5   c0-1.654,1.346-3,3-3h8C19.654,43,21,44.346,21,46z M18.916,13.024l25.101-4.699c0.056,1.216,0.422,2.35,1.023,3.327l-24.314,8.272   C20.9,19.311,21,18.668,21,18C21,16.055,20.201,14.294,18.916,13.024z M43,31.382v4.811l1.133,2.833L41,36.52V30.48L45.351,27H47   v2.382L43,31.382z M49,31V14.705C49.634,14.895,50.305,15,51,15s1.366-0.105,2-0.295V31H49z M61,36.52l-3.133,2.506L59,36.192   v-4.811l-4-2V27h1.649L61,30.48V36.52z"/>
	<path d="M59.236,49.384l0.755-1.534l-3.841-3.841l-1.534,0.755c-0.116-0.052-0.233-0.101-0.35-0.146L53.716,43h-5.432l-0.551,1.617   c-0.117,0.046-0.233,0.095-0.35,0.146l-1.534-0.755l-3.841,3.841l0.755,1.534c-0.052,0.116-0.101,0.233-0.146,0.35L41,50.284v5.432   l1.617,0.551c0.046,0.117,0.095,0.233,0.146,0.35l-0.755,1.534l3.841,3.841l1.534-0.755c0.116,0.052,0.233,0.101,0.35,0.146   L48.284,63h5.432l0.551-1.617c0.117-0.046,0.233-0.095,0.35-0.146l1.534,0.755l3.841-3.841l-0.755-1.534   c0.052-0.116,0.101-0.233,0.146-0.35L61,55.716v-5.432l-1.617-0.551C59.337,49.617,59.288,49.5,59.236,49.384z M59,54.284   l-1.19,0.405l-0.155,0.476c-0.109,0.335-0.25,0.673-0.42,1.005l-0.228,0.446l0.558,1.133l-1.816,1.816l-1.133-0.558l-0.446,0.228   c-0.332,0.169-0.67,0.311-1.005,0.42l-0.476,0.155L52.284,61h-2.568l-0.405-1.19l-0.476-0.155c-0.335-0.109-0.673-0.25-1.005-0.42   l-0.446-0.228l-1.133,0.558l-1.816-1.816l0.558-1.133l-0.228-0.446c-0.169-0.332-0.311-0.67-0.42-1.005l-0.155-0.476L43,54.284   v-2.568l1.19-0.405l0.155-0.476c0.109-0.335,0.25-0.673,0.42-1.005l0.228-0.446l-0.558-1.133l1.816-1.816l1.133,0.558l0.446-0.228   c0.332-0.169,0.67-0.311,1.005-0.42l0.476-0.155L49.716,45h2.568l0.405,1.19l0.476,0.155c0.335,0.109,0.673,0.25,1.005,0.42   l0.446,0.228l1.133-0.558l1.816,1.816l-0.558,1.133l0.228,0.446c0.169,0.332,0.311,0.67,0.42,1.005l0.155,0.476L59,51.716V54.284z"/>
	<path d="M51,48c-2.757,0-5,2.243-5,5s2.243,5,5,5s5-2.243,5-5S53.757,48,51,48z M51,56c-1.654,0-3-1.346-3-3s1.346-3,3-3   s3,1.346,3,3S52.654,56,51,56z"/>
	<path d="M51,11c1.654,0,3-1.346,3-3s-1.346-3-3-3s-3,1.346-3,3S49.346,11,51,11z M51,7c0.551,0,1,0.449,1,1s-0.449,1-1,1   s-1-0.449-1-1S50.449,7,51,7z"/>
	<path d="M14,21c1.654,0,3-1.346,3-3s-1.346-3-3-3s-3,1.346-3,3S12.346,21,14,21z M14,17c0.551,0,1,0.449,1,1s-0.449,1-1,1   s-1-0.449-1-1S13.449,17,14,17z"/>
</g>
</svg>
