<?xml version="1.0" encoding="UTF-8"?>
<svg width="38px" height="25px" viewBox="0 0 38 25" version="1.1" xmlns="http://www.w3.org/2000/svg" xmlns:xlink="http://www.w3.org/1999/xlink">
    <title>分组 10</title>
    <g id="X-function" stroke="none" stroke-width="1" fill="none" fill-rule="evenodd">
        <g id="task备份-2" transform="translate(-1621.000000, -208.000000)">
            <g id="分组" transform="translate(1603.000000, 199.000000)">
                <g id="分组-10" transform="translate(18.000000, 9.000000)">
                    <path d="M37.2,2.9948973 C33.4317103,1.04435791 30.9025408,2.70994972 28.2520296,7.49383966 L30.6133709,8.91436226 C30.7824994,9.01575329 30.8850515,9.20316833 30.8625776,9.40086521 C30.8551224,9.46487583 30.8358343,9.52759284 30.8046049,9.5825929 C30.7453319,9.69096487 30.6429315,9.77353187 30.5152183,9.8056933 L23.7755196,12.4848162 C23.520223,12.551927 23.2516415,12.3900716 23.1788452,12.1275612 L22.0183512,4.6937211 C21.965103,4.5012878 22.0302058,4.29654306 22.1815633,4.17916053 C22.3344378,4.06086357 22.5405822,4.05847711 22.7100791,4.16078257 L25.1158914,5.60726627 C27.8170936,0.734118327 31.5764977,-2.45664339 37.2,2.4547771 L37.2,2.9955664 L37.1998266,2.99491961 L37.2,2.9948973 Z" id="路径" fill="#50BED7" fill-rule="nonzero" transform="translate(29.600000, 6.250000) scale(-1, -1) translate(-29.600000, -6.250000) "></path>
                    <rect id="矩形-copy" stroke="#50BED7" stroke-width="4" fill="#50BED7" x="2" y="7" width="3.6" height="3.5" rx="1.75"></rect>
                    <rect id="矩形-copy-2" stroke="#50BED7" stroke-width="4" fill="#50BED7" x="2" y="15.75" width="3.6" height="3.5" rx="1.75"></rect>
                    <text id="+" font-family="Arial-BoldMT, Arial" font-size="6" font-weight="bold" fill="#FFFFFF">
                        <tspan x="2.04804687" y="10">+</tspan>
                    </text>
                    <text id="+-copy" font-family="Arial-BoldMT, Arial" font-size="6" font-weight="bold" fill="#FFFFFF">
                        <tspan x="2.04804687" y="20">+</tspan>
                    </text>
                    <path d="M15.4794152,25 C13.2264085,25 11.4,23.1340761 11.4,20.8331848 L11.4,4.16651812 C11.4,1.86541889 13.2264666,0 15.4794152,0 L19.5589758,0 L19.5589758,1.95308972 L15.4794152,1.95308972 C14.3518647,1.95308972 13.4395331,2.88600713 13.4395331,4.03654189 C13.4395331,8.19040301 13.4395331,11.3057989 13.4395331,13.3827294 C13.4395331,15.0674348 13.4395331,17.5944929 13.4395331,20.9639037 C13.4395331,22.1151812 14.351981,23.0473559 15.4794152,23.0473559 L30.1202358,23.0473559 C31.2458083,23.0473559 32.1601179,22.1154189 32.1601179,20.9639037 L32.1601179,10.4167855 L34.2,10.4167855 L34.2,20.8334819 C34.2,23.1345217 32.3730098,25 30.1200031,25 L15.4794152,25 Z" id="路径" fill="#50BED7" fill-rule="nonzero"></path>
                    <ellipse id="椭圆形-copy-4" stroke="#50BED7" stroke-width="4" fill="#50BED7" cx="19" cy="8.75" rx="1" ry="1"></ellipse>
                    <ellipse id="椭圆形-copy-5" stroke="#50BED7" stroke-width="4" fill="#50BED7" cx="19" cy="17.5" rx="1" ry="1"></ellipse>
                    <line x1="6.33333333" y1="8.75" x2="17.7333333" y2="8.75" id="路径-5-copy" stroke="#50BED7" stroke-width="2"></line>
                    <line x1="6.33333333" y1="17.5" x2="17.7333333" y2="17.5" id="路径-5-copy-2" stroke="#50BED7" stroke-width="2"></line>
                </g>
            </g>
        </g>
    </g>
</svg>