<?xml version="1.0" standalone="no"?><!DOCTYPE svg PUBLIC "-//W3C//DTD SVG 1.1//EN" "http://www.w3.org/Graphics/SVG/1.1/DTD/svg11.dtd"><svg t="1594273734449" class="icon" viewBox="0 0 1024 1024" version="1.1" xmlns="http://www.w3.org/2000/svg" p-id="2221" xmlns:xlink="http://www.w3.org/1999/xlink" width="200" height="200"><defs><style type="text/css"></style></defs><path d="M919.552 147.456L568.832 15.872c-18.432-6.656-37.376-10.24-56.832-10.24-18.944 0-38.4 3.584-56.832 10.24L104.448 147.456C41.472 171.008 0 231.424 0 298.496v427.008c0 67.072 41.472 127.488 104.448 151.04l350.72 131.584c18.432 6.656 37.376 10.24 56.832 10.24 18.944 0 38.4-3.584 56.832-10.24l350.72-131.584c62.976-23.552 104.448-83.968 104.448-151.04V298.496c0-67.072-41.472-127.488-104.448-151.04z m32.256 578.048c0 36.864-23.04 70.144-57.856 82.944l-350.72 131.584c-10.24 3.584-20.48 5.632-31.232 5.632-10.752 0-20.992-2.048-31.232-5.632L130.048 808.96c-34.304-12.8-57.856-46.592-57.856-82.944V298.496c0-36.864 23.04-70.144 57.856-82.944l350.72-131.584c10.24-3.584 20.48-5.632 31.232-5.632s20.992 2.048 31.232 5.632L893.952 215.04c34.304 12.8 57.856 46.592 57.856 82.944v427.52z" p-id="2222" fill="#8a8a8a"></path><path d="M840.192 283.648c-7.168-18.944-27.648-28.16-46.592-20.992l-281.6 105.472-282.112-105.472c-18.944-7.168-39.424 2.56-46.592 20.992-7.168 18.944 2.56 39.424 20.992 46.592l271.36 101.888v342.528c0 19.968 16.384 36.352 36.352 36.352s36.352-16.384 36.352-36.352V432.128L819.2 330.24c18.944-7.168 28.16-27.648 20.992-46.592z" p-id="2223" fill="#8a8a8a"></path><path d="M723.456 441.856L645.12 471.04v290.304l77.824-29.184c35.84-13.312 64.512-37.888 87.04-73.728s33.792-75.776 33.792-120.832c0.512-93.696-39.936-125.952-120.32-95.744z m50.176 194.56c-13.312 22.528-31.232 37.888-54.272 46.592l-26.112 9.728v-189.44l26.112-9.728c22.016-8.192 39.424-6.656 53.248 4.096 13.824 11.264 20.48 31.232 20.48 59.904 0 30.208-6.144 56.32-19.456 78.848zM311.808 594.432v-1.024c38.912 4.608 58.368-11.264 58.368-46.592 0-20.992-8.704-40.448-26.112-58.368-17.408-17.92-39.936-31.744-67.584-41.472-27.136-9.728-51.2-12.8-71.168-10.24v47.104c18.432-5.632 37.376-4.608 57.344 2.048 30.208 10.752 45.056 27.136 45.056 50.688 0 24.576-19.456 30.208-58.88 16.384l-24.064-8.192v43.52l26.112 9.216c20.992 7.168 36.864 16.384 48.64 27.136 11.776 10.752 17.408 22.528 17.408 35.328 0 12.288-4.608 20.48-14.336 24.064-9.728 3.584-23.04 2.048-39.424-3.584-26.112-9.216-48.64-24.064-68.608-44.544v50.176c18.432 15.872 42.496 28.672 72.704 39.424 33.792 11.776 60.928 14.336 81.408 6.656 20.48-7.168 30.72-24.064 30.72-49.664 0-16.896-6.144-33.28-18.432-49.152-12.288-17.408-28.672-29.696-49.152-38.912z" p-id="2224" fill="#8a8a8a"></path></svg>