<?xml version="1.0" standalone="no"?><!DOCTYPE svg PUBLIC "-//W3C//DTD SVG 1.1//EN" "http://www.w3.org/Graphics/SVG/1.1/DTD/svg11.dtd"><svg t="1594607060213" class="icon" viewBox="0 0 1024 1024" version="1.1" xmlns="http://www.w3.org/2000/svg" p-id="84586" xmlns:xlink="http://www.w3.org/1999/xlink" width="200" height="200"><defs><style type="text/css"></style></defs><path d="M417.426286 397.604571v185.417143a12.8 12.8 0 1 0 25.563428 0v-185.417143a12.8 12.8 0 0 0-25.563428 0z m208.512 0v185.417143a12.8 12.8 0 1 0 25.563428 0v-185.417143a12.8 12.8 0 1 0-25.563428 0z" p-id="84587" fill="#8a8a8a"></path><path d="M835.273143 0.365714H205.714286C167.515429 0.365714 136.502857 29.952 136.502857 66.56v890.185143c0 36.516571 30.957714 66.194286 69.229714 66.194286H835.291429c38.217143 0 69.229714-29.604571 69.229714-66.194286V66.486857c0-36.534857-31.030857-66.121143-69.229714-66.121143zM164.626286 944.896V78.262857c0-27.392 30.500571-49.609143 68.114285-49.609143h333.531429v965.869715H232.740571c-37.613714 0-68.114286-22.198857-68.114285-49.609143z m711.753143 0c0 27.410286-23.222857 49.609143-51.876572 49.609143H498.651429V28.653714h325.76c28.672 0 51.894857 22.198857 51.894857 49.590857v866.651429h0.073143z" p-id="84588" fill="#8a8a8a"></path></svg>