<?xml version="1.0" standalone="no"?><!DOCTYPE svg PUBLIC "-//W3C//DTD SVG 1.1//EN" "http://www.w3.org/Graphics/SVG/1.1/DTD/svg11.dtd"><svg t="1594284437466" class="icon" viewBox="0 0 1024 1024" version="1.1" xmlns="http://www.w3.org/2000/svg" p-id="19725" xmlns:xlink="http://www.w3.org/1999/xlink" width="200" height="200"><defs><style type="text/css"></style></defs><path d="M569.56 245.828l-136.243-124.44H130.524c-56.774-2.954-63.746 45.643-63.746 61.402v572.026c0 58.34 47.293 105.634 105.633 105.634H853.59c58.34 0 105.633-47.294 105.633-105.634V351.461c0-58.34-47.294-105.633-105.633-105.633H569.56zM122.556 191.11h296.292l66.729 54.659-363.021 1.119V191.11z m714.127 597.245H190.317c-29.17 0-52.817-23.647-52.817-52.817v-418.35h699.183c29.17 0 52.817 23.647 52.817 52.817v365.533c0 29.17-23.647 52.817-52.817 52.817z" p-id="19726" fill="#bfbfbf"></path></svg>