<?xml version="1.0" standalone="no"?><!DOCTYPE svg PUBLIC "-//W3C//DTD SVG 1.1//EN" "http://www.w3.org/Graphics/SVG/1.1/DTD/svg11.dtd"><svg t="1594190252489" class="icon" viewBox="0 0 1024 1024" version="1.1" xmlns="http://www.w3.org/2000/svg" p-id="15909" xmlns:xlink="http://www.w3.org/1999/xlink" width="200" height="200"><defs><style type="text/css"></style></defs><path d="M512.7 394.5c-5.5 0-10-4.5-10-10V77.8c0-5.5 4.5-10 10-10s10 4.5 10 10v306.7c0 5.5-4.4 10-10 10zM512.7 955.4c-5.5 0-10-4.5-10-10V638.7c0-5.5 4.5-10 10-10s10 4.5 10 10v306.7c0 5.5-4.4 10-10 10zM946.6 521.6H639.8c-5.5 0-10-4.5-10-10s4.5-10 10-10h306.7c5.5 0 10 4.5 10 10s-4.4 10-9.9 10zM385.7 521.6H78.9c-5.5 0-10-4.5-10-10s4.5-10 10-10h306.7c5.5 0 10 4.5 10 10s-4.4 10-9.9 10z" fill="#2c2c2c" p-id="15910"></path><path d="M512.7 523.9m-22 0a22 22 0 1 0 44 0 22 22 0 1 0-44 0Z" fill="#2c2c2c" p-id="15911"></path><path d="M512.7 855.4c-46.4 0-91.4-9.1-133.8-27-40.9-17.3-77.7-42.1-109.3-73.7-31.6-31.6-56.4-68.3-73.7-109.3C178 603 169 558 169 511.6c0-46.4 9.1-91.4 27-133.8 17.3-40.9 42.1-77.7 73.7-109.3 31.6-31.6 68.3-56.4 109.3-73.7 42.4-17.9 87.4-27 133.8-27s91.4 9.1 133.8 27c40.9 17.3 77.7 42.1 109.3 73.7 31.6 31.6 56.4 68.3 73.7 109.3 17.9 42.4 27 87.4 27 133.8 0 46.4-9.1 91.4-27 133.8-17.3 40.9-42.1 77.7-73.7 109.3-31.6 31.6-68.3 56.4-109.3 73.7-42.4 17.9-87.5 27-133.9 27z m0-667.6C334.2 187.8 189 333.1 189 511.6s145.3 323.8 323.8 323.8 323.8-145.3 323.8-323.8c-0.1-178.5-145.3-323.8-323.9-323.8z" fill="#2c2c2c" p-id="15912"></path></svg>