<?xml version="1.0" standalone="no"?><!DOCTYPE svg PUBLIC "-//W3C//DTD SVG 1.1//EN" "http://www.w3.org/Graphics/SVG/1.1/DTD/svg11.dtd"><svg t="1594606007466" class="icon" viewBox="0 0 1024 1024" version="1.1" xmlns="http://www.w3.org/2000/svg" p-id="75668" xmlns:xlink="http://www.w3.org/1999/xlink" width="200" height="200"><defs><style type="text/css"></style></defs><path d="M350 831 350 831c-17.7 0-32-14.3-32-32L318 223c0-17.7 14.3-32 32-32l0 0c17.7 0 32 14.3 32 32l0 576C382 816.6 367.7 831 350 831z" p-id="75669"></path><path d="M673 831 673 831c-17.7 0-32-14.3-32-32L641 223c0-17.7 14.3-32 32-32l0 0c17.7 0 32 14.3 32 32l0 576C705 816.6 690.7 831 673 831z" p-id="75670"></path></svg>