<?xml version="1.0" standalone="no"?><!DOCTYPE svg PUBLIC "-//W3C//DTD SVG 1.1//EN" "http://www.w3.org/Graphics/SVG/1.1/DTD/svg11.dtd"><svg t="1594284208266" class="icon" viewBox="0 0 1024 1024" version="1.1" xmlns="http://www.w3.org/2000/svg" p-id="10360" xmlns:xlink="http://www.w3.org/1999/xlink" width="200" height="200"><defs><style type="text/css"></style></defs><path d="M888.32 651.682909l84.061091 48.034909a23.970909 23.970909 0 0 1 0 41.565091l-448 256a24.157091 24.157091 0 0 1-23.738182 0l-448.046545-256a23.831273 23.831273 0 0 1 0-41.565091L136.610909 651.636364a23.924364 23.924364 0 1 1 23.784727 41.611636l-47.476363 27.182545 399.592727 228.445091 399.592727-228.445091-47.616-27.182545a23.924364 23.924364 0 1 1 23.831273-41.611636z m0-207.965091l83.968 47.941818a23.970909 23.970909 0 0 1 0 41.658182l-448 256a23.505455 23.505455 0 0 1-23.691636 0l-448-256a23.831273 23.831273 0 0 1 0-41.611636l84.014545-47.988364a23.924364 23.924364 0 1 1 23.784727 41.611637l-47.476363 27.182545 399.592727 228.398545 399.592727-228.398545-47.616-27.229091a23.924364 23.924364 0 1 1 23.831273-41.565091zM524.381091 27.694545l448 256a23.970909 23.970909 0 0 1 0 41.611637l-448 256a24.157091 24.157091 0 0 1-23.738182 0l-448.046545-256a23.831273 23.831273 0 0 1 0-41.611637l448-256a24.064 24.064 0 0 1 23.784727 0z m-11.869091 48.407273L112.919273 304.500364l399.592727 228.398545 399.592727-228.398545-399.592727-228.398546z" fill="#cdcdcd" p-id="10361"></path></svg>