<?xml version="1.0" standalone="no"?><!DOCTYPE svg PUBLIC "-//W3C//DTD SVG 1.1//EN" "http://www.w3.org/Graphics/SVG/1.1/DTD/svg11.dtd"><svg t="1598235170262" class="icon" viewBox="0 0 1024 1024" version="1.1" xmlns="http://www.w3.org/2000/svg" p-id="1521" xmlns:xlink="http://www.w3.org/1999/xlink" width="200" height="200"><defs><style type="text/css"></style></defs><path d="M704 640a64.192 64.192 0 0 0 109.44 45.44l128-128c11.52-11.52 18.56-27.52 18.56-45.44 0-17.92-7.04-33.92-18.56-45.44l-128-128a64.192 64.192 0 0 0-90.88 90.88L805.76 512 723.2 594.56c-12.16 11.52-19.2 27.52-19.2 45.44zM64 320c35.2 0 64-28.8 64-64V128h128c35.2 0 64-28.8 64-64s-28.8-64-64-64H64C28.8 0 0 28.8 0 64v192c0 35.2 28.8 64 64 64z m256 64a64.192 64.192 0 0 0-109.44-45.44l-128 128C71.04 478.08 64 494.08 64 512c0 17.92 7.04 33.92 18.56 45.44l128 128a64.192 64.192 0 0 0 90.88-90.88L218.24 512 300.8 429.44c12.16-11.52 19.2-27.52 19.2-45.44z m64-64c17.92 0 33.92-7.04 45.44-18.56L512 218.24 594.56 300.8c11.52 12.16 27.52 19.2 45.44 19.2a64.192 64.192 0 0 0 45.44-109.44l-128-128C545.92 71.04 529.92 64 512 64s-33.92 7.04-45.44 18.56l-128 128A64.192 64.192 0 0 0 384 320z m576 384c-35.2 0-64 28.8-64 64v128h-128c-35.2 0-64 28.8-64 64s28.8 64 64 64h192c35.2 0 64-28.8 64-64v-192c0-35.2-28.8-64-64-64z m0-704h-192c-35.2 0-64 28.8-64 64s28.8 64 64 64h128v128c0 35.2 28.8 64 64 64s64-28.8 64-64V64c0-35.2-28.8-64-64-64zM256 896H128v-128c0-35.2-28.8-64-64-64s-64 28.8-64 64v192c0 35.2 28.8 64 64 64h192c35.2 0 64-28.8 64-64s-28.8-64-64-64z m384-192c-17.92 0-33.92 7.04-45.44 18.56L512 805.76 429.44 723.2A61.76 61.76 0 0 0 384 704a64.192 64.192 0 0 0-45.44 109.44l128 128c11.52 11.52 27.52 18.56 45.44 18.56s33.92-7.04 45.44-18.56l128-128A64.192 64.192 0 0 0 640 704z" p-id="1522" fill="#cdcdcd"></path></svg>